<svg xmlns:xlink="http://www.w3.org/1999/xlink" xmlns="http://www.w3.org/2000/svg" id="Layer_1" data-name="Layer 1" viewBox="0 0 442 466" width="442"  height="466" >
  <defs>
    <style>.cls-1,.cls-3{fill:#fff;}.cls-2{fill:#ee4c01;}.cls-3{font-size:28px;font-family:SinhalaMN, Sinhala MN;letter-spacing:0.07em;}</style>
  </defs>
  <path class="cls-1" d="M198.4.1v86H69.7V8A7.9,7.9,0,0,1,77.6.1Z"/>
  <path class="cls-1" d="M197.2,254.4H77.6a7.9,7.9,0,0,1-7.9-8V113.2c23.1,7.6,54.8,22.7,82.2,52.8A189.5,189.5,0,0,1,197.2,254.4Z"/>
  <path class="cls-1" d="M374.5,8V86.1H221V.1H366.5A7.9,7.9,0,0,1,374.5,8Z"/>
  <path class="cls-1" d="M374.5,108.7V246.4a8,8,0,0,1-8,8H221V108.7Z"/>
  <path class="cls-2" d="M198.4,108.7v84a210.1,210.1,0,0,0-29.7-41.9,208.9,208.9,0,0,0-53.2-42.1Z"/>
  <text class="cls-3" transform="translate(179.4 458.4)">INFRA</text>
  <path class="cls-1" d="M84.7,317.8h22.1v91.7H84.7V350.3c-6.2,5.7-28.3,58.8-31.8,59.3s-6.4.3-8.2-1.3L14,350.3v59.2H.1V317.8H21.5L54,379.3Z"/>
  <path class="cls-1" d="M251.8,317.8v59.8a79.2,79.2,0,0,0,2.5,10.2c6.8,18.2,32.3,19.9,41.8,2.7a66.9,66.9,0,0,0,3.2-7.1V317.8h15.1v59.8c0,3-2.6,12.5-4.2,15.5-12.7,24.9-62.8,24.7-76.3.1-1-1.9-4.2-9.5-4.2-11V317.8Z"/>
  <path class="cls-1" d="M215.8,409.5H192.6c-3.4-6.5-6.3-18.2-10.5-23.7-1.4-1.8-1.8-1.7-3.9-1.9-4.3-.5-28.1-.6-31.2.3s-9.7,20.8-13.5,24.7l-15.1.6,45.7-94.1,8,.3Zm-38.3-33.7-12.7-29c-6.3,8.2-10.6,19.5-13.9,29Z"/>
  <polygon class="cls-1" points="358.5 317.8 358.5 400.2 406.1 400.2 406.1 409.5 336.5 409.5 336.5 317.8 358.5 317.8"/>
  <rect class="cls-1" x="420" y="317.8" width="22" height="91.64"/>
</svg>